<?xml version="1.0" encoding="utf-8"?>
<!-- Generator: Adobe Illustrator 21.0.0, SVG Export Plug-In . SVG Version: 6.00 Build 0)  -->
<svg version="1.1" id="Layer_1" xmlns="http://www.w3.org/2000/svg" xmlns:xlink="http://www.w3.org/1999/xlink" x="0px" y="0px"
	 viewBox="0 0 2516 169" style="enable-background:new 0 0 2516 169;" xml:space="preserve">
<style type="text/css">
	.st0{fill:none;stroke:#FFF7ED;stroke-width:3;stroke-miterlimit:10;}
</style>
<g>
	<path class="st0" d="M103.7,38.6C98.7,32.7,92,28,83.6,24.5c-8.3-3.5-18.4-5.3-30.2-5.3H18.2V137h41c8,0,15.6-1.3,22.7-3.9
		c7.1-2.6,13.4-6.4,18.9-11.4c5.4-5,9.7-10.9,12.9-17.9c3.1-7,4.7-14.9,4.7-23.6c0-7.4-1.2-14.7-3.5-21.9
		C112.5,51,108.8,44.5,103.7,38.6z M91.6,94.2c-1.9,4.5-4.5,8.3-8,11.3c-3.5,3-7.6,5.3-12.4,6.8c-4.8,1.5-10.1,2.3-16,2.3H41.4V41.5
		h18.9c2.7,0,5.9,0.5,9.8,1.5c3.8,1,7.6,2.9,11.3,5.5c3.7,2.7,6.8,6.4,9.3,11.3c2.5,4.9,3.8,11.1,3.8,18.8
		C94.4,84.5,93.4,89.7,91.6,94.2z"/>
	<polygon class="st0" points="180.8,89.2 231.3,89.2 231.3,66.8 180.8,66.8 180.8,41.6 237.9,41.6 237.9,19.2 157.6,19.2 157.6,137 
		240.1,137 240.1,114.6 180.8,114.6 	"/>
	<path class="st0" d="M304.4,42.3c2.9-2,6.8-3,11.8-3c4.1,0,8.4,0.8,13,2.4c4.6,1.6,9.2,3.6,13.7,6.1l8.8-17.8
		c-4.7-3.1-10-5.8-15.9-8s-13.6-3.4-23.1-3.4c-7.3,0.3-13.7,1.9-19.2,4.9c-5.5,2.9-9.8,6.9-12.9,11.9c-3,5-4.6,10.9-4.6,17.8
		c0,5.7,1,10.4,3.1,14.3c2.1,3.9,4.8,7.1,8.2,9.8c3.4,2.6,7,4.8,10.8,6.6c3.8,1.8,7.6,3.4,11.2,4.8c3.1,1.2,5.9,2.6,8.6,4.2
		c2.6,1.6,4.7,3.4,6.2,5.3c1.5,1.9,2.3,4.1,2.3,6.4c0,3.4-0.9,6.1-2.8,8c-1.9,1.9-4.2,3.3-7,4.1c-2.8,0.8-5.6,1.2-8.4,1.2
		c-2.8,0-5.8-0.4-9.1-1.3c-3.3-0.9-6.6-2.1-9.8-3.6c-3.3-1.5-6.3-3.3-9-5.4L270,125.6c4.2,2.9,8.5,5.3,13,7.1
		c4.5,1.9,9,3.3,13.7,4.2c4.6,0.9,9.2,1.4,13.7,1.4c8.7,0,16.1-1.6,22.1-4.7c6-3.1,10.5-7.3,13.6-12.4c3.1-5.1,4.6-10.7,4.6-16.6
		c0-5.7-0.8-10.4-2.4-14.3c-1.6-3.9-3.7-7.1-6.4-9.8c-2.7-2.6-5.7-4.8-9-6.6s-6.7-3.3-10.2-4.6c-3.7-1.4-7.3-2.9-10.8-4.6
		c-3.5-1.7-6.3-3.7-8.5-5.8c-2.2-2.2-3.3-4.7-3.3-7.4C300.1,47.3,301.6,44.3,304.4,42.3z"/>
	<rect x="389.4" y="19.2" class="st0" width="23.2" height="117.8"/>
	<path class="st0" d="M510.7,97.8H531V112c-1.9,1.1-4.3,1.8-7,2.3c-2.8,0.5-5.8,0.7-9.1,0.7c-5.8,0-11-0.8-15.8-2.4
		c-4.7-1.6-8.9-3.9-12.3-7c-3.5-3.1-6.2-6.9-8.1-11.3c-1.9-4.4-2.9-9.4-2.9-15c0-6.3,0.9-11.8,2.6-16.6c1.7-4.7,4.2-8.7,7.6-11.9
		c3.4-3.2,7.5-5.6,12.4-7.2c4.9-1.6,10.6-2.4,17-2.4c2.6,0,5.5,0.3,8.8,1c3.3,0.7,6.6,1.6,9.8,2.6c3.2,1.1,5.8,2.1,7.7,3.2l7.5-21.6
		c-4.4-2.5-9.7-4.5-16-6.2c-6.3-1.7-13.2-2.5-20.8-2.5c-8,0-15.7,1.3-23,3.8c-7.3,2.6-13.8,6.5-19.4,11.8
		c-5.6,5.3-10,11.9-13.3,19.8c-3.3,7.9-4.9,17.3-4.9,28.1c0,8.2,1.4,15.8,4.3,22.7c2.9,6.9,7,12.9,12.5,18c5.4,5.1,12,9,19.7,11.8
		c7.7,2.8,16.3,4.2,25.9,4.2c3.6,0,7.5-0.4,11.5-1.2c4.1-0.8,8-1.8,11.9-3.1c3.9-1.3,7.3-2.7,10.3-4.2c3-1.5,5.2-3.1,6.6-4.6V75.4
		h-43.8V97.8z"/>
	<polygon class="st0" points="680.1,90.2 597.9,14.6 596.9,14.6 596.9,137 620.4,137 620,67.4 702.4,141.8 703,141.8 703,19.2 
		679.6,19.2 	"/>
	<path class="st0" d="M907.8,65.3h-21.1l-8,20.6l-21.3-28.6c-0.3-0.5-0.9-1.5-1.8-3c-0.9-1.4-1.7-3-2.5-4.8
		c-0.8-1.8-1.2-3.4-1.2-4.9c0-2.6,0.8-4.9,2.4-7c1.6-2.1,4.2-3.2,7.8-3.2c2.9,0,5.8,1.1,8.9,3.2c3,2.1,6.2,5,9.5,8.6l11.7-15.5
		c-3.4-4.4-8-8.1-13.8-11.2c-5.8-3.1-12.4-4.6-20-4.6c-6.9,0-12.7,1.4-17.2,4.2c-4.5,2.8-7.9,6.3-10.1,10.6
		c-2.2,4.2-3.3,8.5-3.3,12.7c0,3.3,0.6,6.6,1.8,9.8c1.2,3.3,2.6,6.2,4.2,8.8c1.6,2.6,2.9,4.7,4,6.2l0.4,0.5c-0.7,0.2-1.3,0.5-2,0.7
		c-5,2-9.5,4.6-13.6,7.9c-4.1,3.3-7.3,7.2-9.7,11.7c-2.4,4.5-3.6,9.4-3.6,14.7c0,7,1.8,13.3,5.3,18.7c3.5,5.4,8.3,9.7,14.2,12.8
		c6,3.1,12.6,4.6,20,4.6c9.5,0,17.2-1.9,23.1-5.8c3.6-2.3,6.6-4.9,9-7.8l8.7,11.6c4.4,0,8.1,0,11.2,0c3.1,0,6.1,0,9,0
		c2.9,0,5.1,0,6.6,0l-24.3-32.7L907.8,65.3z M866.6,112.5c-1.5,1.7-3.5,3.1-5.8,4.1c-2.3,1-5.2,1.5-8.7,1.5c-3.4,0-6.6-0.7-9.4-2.1
		c-2.9-1.4-5.1-3.3-6.8-5.8c-1.7-2.5-2.5-5.4-2.5-8.7c0-2.3,0.5-4.6,1.4-6.7c0.9-2.1,2.2-4.1,3.9-5.8c1.7-1.7,3.7-3.1,5.9-4.1
		c1.7-0.8,3.5-1.2,5.4-1.4l19.1,25.7C868.3,110.4,867.5,111.5,866.6,112.5z"/>
	<path class="st0" d="M1105.3,38.6c-5.1-5.9-11.8-10.6-20.1-14.1c-8.3-3.5-18.4-5.3-30.2-5.3h-35.2V137h41c8,0,15.6-1.3,22.7-3.9
		c7.1-2.6,13.4-6.4,18.9-11.4c5.4-5,9.7-10.9,12.9-17.9c3.1-7,4.7-14.9,4.7-23.6c0-7.4-1.2-14.7-3.5-21.9
		C1114.1,51,1110.4,44.5,1105.3,38.6z M1093.1,94.2c-1.9,4.5-4.5,8.3-8,11.3c-3.5,3-7.6,5.3-12.4,6.8c-4.8,1.5-10.1,2.3-16,2.3H1043
		V41.5h18.9c2.7,0,5.9,0.5,9.8,1.5c3.8,1,7.6,2.9,11.3,5.5c3.7,2.7,6.8,6.4,9.3,11.3c2.5,4.9,3.8,11.1,3.8,18.8
		C1096,84.5,1095,89.7,1093.1,94.2z"/>
	<polygon class="st0" points="1182.3,89.2 1232.9,89.2 1232.9,66.8 1182.3,66.8 1182.3,41.6 1239.5,41.6 1239.5,19.2 1159.1,19.2 
		1159.1,137 1241.7,137 1241.7,114.6 1182.3,114.6 	"/>
	<polygon class="st0" points="1326.4,85.6 1299.5,19.2 1271.6,19.2 1325.4,142.4 1379.1,19.2 1351.6,19.2 	"/>
	<polygon class="st0" points="1438.7,89.2 1489.2,89.2 1489.2,66.8 1438.7,66.8 1438.7,41.6 1495.8,41.6 1495.8,19.2 1415.5,19.2 
		1415.5,137 1498,137 1498,114.6 1438.7,114.6 	"/>
	<polygon class="st0" points="1561.2,19.2 1538,19.2 1538,137 1616.6,137 1616.6,114.6 1561.2,114.6 	"/>
	<path class="st0" d="M1748.7,36c-5.6-5.6-12-10-19.3-13.2c-7.3-3.2-15-4.8-23.2-4.8c-8.3,0-16.1,1.6-23.4,4.8
		c-7.3,3.2-13.6,7.6-19.1,13.2c-5.5,5.6-9.8,12-12.9,19.3c-3.1,7.3-4.6,14.9-4.6,23c0,8.3,1.5,16.1,4.6,23.4
		c3.1,7.3,7.4,13.6,12.9,19.1c5.5,5.5,11.9,9.8,19.1,12.9c7.3,3.1,15,4.6,23.4,4.6c8.2,0,15.9-1.5,23.2-4.6
		c7.3-3.1,13.7-7.4,19.3-12.9c5.6-5.5,10-11.9,13.1-19.1c3.1-7.3,4.7-15,4.7-23.4c0-8.1-1.6-15.8-4.7-23
		C1758.6,48,1754.3,41.6,1748.7,36z M1739.8,92.9c-1.8,4.5-4.3,8.5-7.5,12c-3.2,3.5-7,6.2-11.3,8.1c-4.3,1.9-9,2.9-14,2.9
		c-5.2,0-10.1-1-14.5-2.9c-4.4-1.9-8.3-4.6-11.7-8.1c-3.4-3.5-6-7.5-7.8-12c-1.9-4.5-2.8-9.4-2.8-14.6c0-5.3,0.9-10.3,2.7-14.9
		c1.8-4.6,4.4-8.6,7.7-12.1c3.3-3.5,7.1-6.2,11.5-8.1c4.4-1.9,9.1-2.9,14.2-2.9s9.9,1,14.2,2.9c4.4,1.9,8.2,4.6,11.4,8.1
		c3.3,3.5,5.8,7.5,7.7,12.1c1.9,4.6,2.8,9.5,2.8,14.9C1742.5,83.5,1741.6,88.4,1739.8,92.9z"/>
	<path class="st0" d="M1866,24.1c-6.7-3.3-14.9-4.9-24.6-4.9h-35.7V137h23.2V99.7h16.6c7.7,0,14.2-1.2,19.4-3.6
		c5.3-2.4,9.5-5.6,12.6-9.5c3.1-3.9,5.4-8.3,6.9-13.2c1.4-4.9,2.2-9.7,2.2-14.5c0-8.1-1.8-15.1-5.3-21
		C1877.9,32,1872.7,27.4,1866,24.1z M1862.6,64.8c-0.6,2-1.5,4-2.9,5.8c-1.3,1.9-3.2,3.4-5.5,4.6c-2.3,1.2-5.3,1.8-8.8,1.8h-16.5
		V41.6h16.6c4.1,0,7.3,0.7,9.7,2.1c2.4,1.4,4.2,3.1,5.4,5.1c1.2,2,1.9,4,2.3,6c0.4,2,0.6,3.5,0.6,4.7
		C1863.5,61.1,1863.2,62.8,1862.6,64.8z"/>
	<polygon class="st0" points="1983.4,99.2 1923.6,14.4 1923.5,14.4 1923.5,137 1945.9,137 1945.9,84.3 1982.8,135.4 1983.1,135.4 
		2021.5,80.8 2021.5,137 2044.7,137 2044.7,14.4 2044.4,14.4 	"/>
	<polygon class="st0" points="2114.3,89.2 2164.9,89.2 2164.9,66.8 2114.3,66.8 2114.3,41.6 2171.5,41.6 2171.5,19.2 2091.1,19.2 
		2091.1,137 2173.7,137 2173.7,114.6 2114.3,114.6 	"/>
	<polygon class="st0" points="2296.9,90.2 2214.7,14.6 2213.7,14.6 2213.7,137 2237.2,137 2236.8,67.4 2319.1,141.8 2319.8,141.8 
		2319.8,19.2 2296.4,19.2 	"/>
	<polygon class="st0" points="2358.2,19.2 2358.2,41.6 2385.7,41.6 2385.7,137 2408.9,137 2408.9,41.6 2437.5,41.6 2437.5,19.2 	"/>
</g>
</svg>
