<?xml version="1.0" encoding="utf-8"?>
<!-- Generator: Adobe Illustrator 21.0.0, SVG Export Plug-In . SVG Version: 6.00 Build 0)  -->
<svg version="1.1" id="Layer_1" xmlns="http://www.w3.org/2000/svg" xmlns:xlink="http://www.w3.org/1999/xlink" x="0px" y="0px"
	 viewBox="0 0 494.7 595.3" style="enable-background:new 0 0 494.7 595.3;" xml:space="preserve">
<style type="text/css">
	.st0{fill:#EEBECE;}
	.st1{fill:none;stroke:#EEBECE;stroke-width:4;stroke-miterlimit:10;}
</style>
<g>
	<path class="st0" d="M0,595.3V0h169.3c58.9,0,109.2,9,150.9,27c41.7,18,75.4,41.7,101,71.1c25.6,29.4,44.3,62.3,56,98.5
		c11.7,36.3,17.6,72.6,17.6,109.2c0,44.7-7.9,84.8-23.7,120.2c-15.8,35.4-37.5,65.8-65,91.2c-27.5,25.3-59.2,44.7-94.9,58.1
		c-35.7,13.4-73.5,20-113.3,20H0z M95.7,503.7h85c31.6,0,60.5-4.5,86.7-13.5c26.2-9,48.9-22.1,68.3-39.2
		c19.3-17.2,34.3-38.6,45-64.2c10.6-25.6,15.9-54.8,15.9-87.5c0-37.1-6.1-68.8-18.4-95.3c-12.3-26.4-28.4-48-48.2-64.6
		c-19.9-16.6-41.6-28.9-65-36.8c-23.4-7.9-46.6-11.9-69.5-11.9H95.7V503.7z"/>
</g>
<g>
	<path class="st1" d="M122.9,456.1V125.8h81.6c27.4,0,50.8,4.9,70.1,14.8c19.3,9.9,34.8,23,46.6,39.5c11.7,16.5,20.3,34.9,25.8,55.2
		c5.4,20.4,8.2,40.8,8.2,61.5c0,24.5-3.6,46.6-10.9,66.2c-7.3,19.6-17.2,36.4-29.9,50.3c-12.6,13.9-27.2,24.5-43.8,31.9
		c-16.6,7.3-34.1,11-52.7,11H122.9z M176.7,393.2h31.9c13.6,0,26-2.2,37.1-6.5c11.1-4.3,20.7-10.7,28.7-19.1
		c8-8.4,14.2-18.9,18.5-31.6c4.3-12.7,6.5-27.3,6.5-43.8c0-21.5-2.9-39.1-8.7-52.7c-5.8-13.6-13-24.2-21.5-31.6
		c-8.5-7.5-17.2-12.6-26.2-15.5c-8.9-2.8-16.4-4.3-22.6-4.3h-43.8V393.2z"/>
</g>
</svg>
