<?xml version="1.0" encoding="utf-8"?>
<!-- Generator: Adobe Illustrator 21.0.0, SVG Export Plug-In . SVG Version: 6.00 Build 0)  -->
<svg version="1.1" id="Layer_1" xmlns="http://www.w3.org/2000/svg" xmlns:xlink="http://www.w3.org/1999/xlink" x="0px" y="0px"
	 viewBox="0 0 494.7 595.3" style="enable-background:new 0 0 494.7 595.3;" xml:space="preserve">
<style type="text/css">
	.st0{fill:#EEBECE;}
	.st1{fill:none;stroke:#EEBECE;stroke-width:17;stroke-miterlimit:10;}
</style>
<g>
	<path class="st0" d="M0,595.3V0h169.3c58.9,0,109.2,9,150.9,27c41.7,18,75.4,41.7,101,71.1c25.6,29.4,44.3,62.3,56,98.5
		c11.7,36.3,17.6,72.6,17.6,109.2c0,44.7-7.9,84.8-23.7,120.2c-15.8,35.4-37.5,65.8-65,91.2c-27.5,25.3-59.2,44.7-94.9,58.1
		c-35.7,13.4-73.5,20-113.3,20H0z M95.7,503.7h85c31.6,0,60.5-4.5,86.7-13.5c26.2-9,48.9-22.1,68.3-39.2
		c19.3-17.2,34.3-38.6,45-64.2c10.6-25.6,15.9-54.8,15.9-87.5c0-37.1-6.1-68.8-18.4-95.3c-12.3-26.4-28.4-48-48.2-64.6
		c-19.9-16.6-41.6-28.9-65-36.8c-23.4-7.9-46.6-11.9-69.5-11.9H95.7V503.7z"/>
</g>
<g>
	<path class="st1" d="M138.7,437.2V150.8h72.9c24.5,0,45.4,4.3,62.6,12.8c17.2,8.6,31.1,20,41.6,34.2c10.5,14.3,18.2,30.2,23,47.9
		c4.9,17.6,7.3,35.4,7.3,53.3c0,21.3-3.3,40.4-9.8,57.4c-6.5,17-15.4,31.5-26.7,43.6c-11.3,12.1-24.3,21.3-39.1,27.6
		c-14.8,6.4-30.5,9.5-47.1,9.5H138.7z M186.8,382.8h28.5c12.1,0,23.2-1.9,33.1-5.6c9.9-3.8,18.5-9.3,25.7-16.5
		c7.2-7.3,12.7-16.4,16.6-27.4c3.9-11,5.8-23.7,5.8-37.9c0-18.7-2.6-33.9-7.8-45.7c-5.2-11.8-11.6-20.9-19.2-27.4
		c-7.6-6.5-15.4-11-23.4-13.4c-8-2.5-14.7-3.7-20.2-3.7h-39.1V382.8z"/>
</g>
</svg>
